<?xml version="1.0" encoding="UTF-8" ?>
<!DOCTYPE svg PUBLIC "-//W3C//DTD SVG 1.1//EN" "http://www.w3.org/Graphics/SVG/1.1/DTD/svg11.dtd">
<svg width="184pt" height="184pt" viewBox="0 0 184 184" version="1.1" xmlns="http://www.w3.org/2000/svg">
<g id="#fffffeff">
</g>
<g id="#db8a39ff">
<path fill="#db8a39" opacity="1.00" d=" M 35.19 21.71 C 40.81 12.91 51.10 6.48 61.76 7.50 C 65.78 7.84 67.96 13.20 65.19 16.22 C 59.51 24.13 53.51 31.82 47.66 39.60 C 46.09 41.66 44.70 44.25 45.62 46.90 C 47.30 49.64 49.91 51.60 52.22 53.78 C 57.09 58.07 61.70 62.64 66.49 67.02 C 66.81 54.25 67.57 41.43 69.96 28.86 C 74.12 28.48 78.31 28.52 82.48 28.75 C 77.97 52.82 77.79 77.49 80.13 101.81 C 81.95 121.57 84.92 141.37 90.92 160.32 C 97.45 140.19 100.23 119.04 102.16 98.02 C 102.76 92.03 102.44 85.99 103.04 80.00 C 103.41 75.70 103.51 71.36 103.09 67.06 C 102.26 60.05 102.90 52.95 101.94 45.95 C 101.42 40.17 99.69 34.55 99.52 28.73 C 103.79 28.58 108.12 28.30 112.35 29.10 C 113.72 41.66 115.24 54.24 115.34 66.88 C 121.40 61.78 127.02 56.21 132.93 50.94 C 134.51 49.26 136.84 47.59 136.54 44.99 C 136.76 42.92 135.40 41.23 134.29 39.64 C 128.92 32.71 123.75 25.62 118.41 18.66 C 117.07 16.67 115.16 14.59 115.55 11.99 C 115.76 9.59 117.85 7.67 120.22 7.51 C 130.89 6.37 141.19 12.81 146.69 21.69 C 148.09 19.85 150.12 19.02 152.40 19.45 C 152.52 20.83 152.65 22.21 152.77 23.59 C 151.61 24.28 150.45 24.95 149.29 25.62 C 149.52 27.21 149.76 28.80 150.00 30.40 C 151.69 29.97 153.40 29.58 155.12 29.23 C 155.43 29.94 156.06 31.38 156.37 32.10 C 156.38 34.74 153.16 34.45 151.34 34.70 C 151.34 36.26 151.33 37.82 151.32 39.38 C 153.00 39.87 155.13 39.68 156.38 41.09 C 157.06 42.75 155.92 44.11 155.11 45.44 C 153.57 45.17 152.05 44.88 150.51 44.62 C 150.47 46.10 150.42 47.59 150.39 49.07 C 151.91 49.91 153.37 50.86 154.76 51.90 C 153.92 53.18 153.13 55.60 151.12 54.85 C 148.97 54.06 146.88 54.25 145.20 55.88 C 146.98 57.90 148.67 60.38 146.74 62.94 C 144.46 62.73 142.51 61.61 140.86 60.07 C 139.87 61.14 137.38 62.21 139.25 63.71 C 141.02 65.21 140.61 67.46 140.33 69.50 C 137.54 69.96 135.57 68.00 133.84 66.14 C 132.67 67.52 130.85 68.85 131.23 70.91 C 131.25 72.63 132.87 73.64 133.83 74.88 C 135.64 73.13 137.88 71.93 140.47 72.50 C 141.26 75.18 140.02 77.48 137.98 79.18 C 138.64 79.74 139.30 80.31 139.96 80.87 C 141.98 79.76 144.21 79.20 146.51 79.46 C 147.00 81.76 146.21 83.82 144.42 85.31 C 144.80 87.19 145.39 89.05 145.39 90.98 C 144.83 92.71 143.65 94.14 142.62 95.61 C 144.49 97.04 146.23 101.39 142.79 101.80 C 140.30 102.48 139.43 99.70 138.24 98.17 C 136.50 101.17 139.57 104.29 138.48 107.50 C 135.98 108.07 133.91 106.88 132.41 104.93 C 131.08 105.96 129.09 106.95 129.34 108.95 C 129.68 110.52 130.99 111.65 131.87 112.94 C 133.78 111.99 136.30 109.31 138.16 111.80 C 139.70 113.45 137.50 115.30 136.78 116.80 C 135.54 118.14 137.16 119.58 137.60 120.90 C 138.73 119.82 139.81 118.68 141.09 117.78 C 143.02 117.26 145.27 119.91 143.79 121.62 C 142.68 123.59 141.59 125.62 141.68 127.96 C 141.92 130.74 139.80 132.66 138.20 134.62 C 139.25 136.41 139.72 138.41 139.57 140.49 C 136.86 141.26 134.55 140.01 132.80 138.00 C 131.99 138.30 131.17 138.60 130.36 138.90 C 131.97 140.58 133.04 142.64 132.96 145.02 C 130.20 146.38 128.27 144.31 126.54 142.44 C 124.59 142.50 123.64 144.74 122.31 145.89 C 123.30 147.93 124.39 149.94 125.64 151.85 C 127.46 151.15 129.63 148.50 131.50 150.42 C 131.80 151.04 132.41 152.27 132.72 152.89 C 131.53 153.95 130.35 155.01 129.15 156.07 C 130.16 158.74 132.36 161.74 130.65 164.58 C 129.11 168.60 122.77 169.01 120.46 165.54 C 115.65 159.16 111.02 152.63 106.46 146.06 C 104.74 155.30 100.95 163.96 97.63 172.70 C 93.22 173.54 88.70 173.38 84.27 172.70 C 80.51 164.06 77.84 155.01 75.17 145.98 C 71.76 151.83 67.51 157.10 63.73 162.70 C 62.48 164.41 61.29 166.25 59.52 167.47 C 56.52 168.32 52.65 167.80 51.27 164.60 C 49.31 161.53 51.95 158.35 53.58 155.81 C 51.60 155.09 48.26 153.89 49.93 151.17 C 51.31 148.18 54.31 150.72 56.20 151.71 C 57.43 149.91 58.80 148.12 59.40 145.99 C 58.70 143.89 56.58 143.04 54.78 142.13 C 54.34 143.26 53.90 144.39 53.46 145.53 C 52.43 145.57 51.40 145.62 50.36 145.67 C 49.82 144.76 49.27 143.85 48.72 142.94 C 49.64 141.63 50.58 140.34 51.53 139.07 C 50.72 138.45 49.91 137.84 49.11 137.22 C 48.27 138.36 47.47 139.54 46.48 140.55 C 45.15 140.65 43.82 140.53 42.49 140.48 C 42.02 138.18 42.78 136.11 44.51 134.57 C 42.54 132.76 39.82 131.02 40.29 127.95 C 40.51 124.95 38.75 122.48 37.29 120.04 C 38.21 119.17 39.13 118.29 40.05 117.42 C 41.45 118.26 42.84 119.12 44.22 119.99 C 44.86 119.34 45.49 118.69 46.13 118.04 C 44.50 116.37 41.69 113.26 44.47 111.30 C 46.55 109.37 48.44 112.47 49.95 113.67 C 50.96 111.80 51.95 109.92 52.84 107.99 C 51.87 107.01 50.91 106.02 49.94 105.04 C 48.31 106.06 46.68 107.07 45.01 108.02 C 41.78 105.59 44.45 102.11 44.83 99.04 C 42.43 100.40 40.22 102.52 37.22 101.64 C 37.34 99.44 38.07 97.37 38.50 95.23 C 37.90 93.45 36.85 91.83 36.48 89.97 C 36.67 88.20 37.64 86.67 38.39 85.09 C 37.39 84.56 36.39 84.02 35.40 83.48 C 35.45 82.13 35.51 80.77 35.57 79.42 C 38.54 78.85 41.59 81.78 44.13 79.35 C 42.41 77.67 41.07 75.68 41.09 73.19 C 43.63 71.59 46.08 73.08 48.01 74.85 C 48.91 73.80 49.86 72.78 50.61 71.60 C 51.42 69.31 49.27 67.80 48.03 66.23 C 46.32 68.21 44.00 70.23 41.32 68.54 C 40.93 66.15 41.95 64.13 43.69 62.57 C 42.45 61.45 41.21 60.35 39.97 59.24 C 39.36 60.42 38.75 61.59 38.13 62.77 C 36.76 62.48 35.41 62.17 34.05 61.85 C 33.80 59.29 36.21 57.76 36.57 55.47 C 34.40 52.38 29.98 57.10 28.16 53.68 C 26.45 51.30 30.03 50.14 31.58 49.14 C 31.60 47.92 31.62 46.70 31.66 45.49 C 29.50 45.33 27.35 45.12 25.22 44.77 C 25.61 43.14 24.82 40.36 27.13 40.05 C 28.33 40.06 29.51 40.25 30.69 40.41 C 30.62 38.51 30.59 36.61 30.58 34.71 C 29.19 34.36 27.44 34.74 26.37 33.60 C 24.97 32.42 26.05 30.77 26.42 29.42 C 28.29 29.45 30.15 29.50 32.01 29.57 C 32.14 28.26 32.95 26.87 32.44 25.58 C 31.41 24.82 30.30 24.18 29.22 23.50 C 29.33 22.15 29.46 20.81 29.59 19.47 C 31.84 19.08 34.00 19.62 35.19 21.71 M 50.06 15.19 C 50.06 16.37 50.07 17.56 50.07 18.75 C 51.25 18.71 52.44 18.66 53.63 18.61 C 53.68 17.46 53.74 16.31 53.79 15.16 C 52.55 15.17 51.31 15.18 50.06 15.19 M 128.20 15.25 C 128.26 16.37 128.32 17.49 128.39 18.61 C 129.55 18.65 130.72 18.69 131.89 18.73 C 131.91 17.56 131.94 16.40 131.97 15.23 C 130.71 15.24 129.45 15.24 128.20 15.25 M 115.31 72.13 C 115.91 83.06 114.23 93.92 114.24 104.84 C 119.00 100.05 124.39 95.92 128.99 90.97 C 130.48 89.42 129.26 87.28 127.93 86.10 C 123.51 81.64 119.57 76.74 115.31 72.13 M 54.65 85.65 C 53.75 87.13 51.44 88.91 52.88 90.74 C 57.44 95.82 63.10 99.78 67.71 104.83 C 67.48 94.17 66.09 83.59 66.45 72.90 C 62.50 77.14 58.47 81.30 54.65 85.65 M 113.37 110.18 C 112.25 117.48 111.74 124.91 109.93 132.09 C 109.21 134.98 108.57 137.88 108.08 140.81 C 114.26 136.18 121.10 132.37 126.68 126.99 C 123.01 120.83 117.77 115.81 113.37 110.18 M 58.33 122.33 C 57.33 123.72 55.77 125.05 55.76 126.88 C 56.89 129.14 59.21 130.39 61.19 131.81 C 65.53 134.62 69.51 137.94 73.77 140.87 C 73.23 136.47 71.93 132.21 71.09 127.86 C 69.90 122.25 69.42 116.53 68.40 110.89 C 64.73 114.42 61.74 118.56 58.33 122.33 Z" />
</g>
</svg>
