<?xml version="1.0" encoding="UTF-8"?>
<svg xmlns="http://www.w3.org/2000/svg" xmlns:xlink="http://www.w3.org/1999/xlink" width="271px" height="90px" viewBox="0 0 270 90" version="1.1">
<g id="surface1">
<path style=" stroke:none;fill-rule:nonzero;fill:rgb(94.901961%,54.509804%,18.039216%);fill-opacity:1;" d="M 12.515625 15.042969 C 14.484375 11.453125 18.25 8.976562 22.285156 8.453125 C 23.546875 8.246094 25.09375 8.316406 25.957031 9.402344 C 26.613281 10.199219 26.472656 11.390625 25.863281 12.171875 C 23.128906 15.851562 20.371094 19.515625 17.636719 23.195312 C 16.820312 24.246094 16.824219 25.914062 17.875 26.808594 C 20.449219 29.175781 23.03125 31.539062 25.613281 33.898438 C 26.015625 34.25 26.25 34.738281 26.457031 35.222656 C 26.566406 29.402344 26.984375 23.574219 27.957031 17.828125 C 29.820312 17.828125 31.683594 17.828125 33.546875 17.828125 C 32.160156 24.183594 31.761719 30.710938 31.78125 37.203125 C 31.890625 50.371094 33.421875 63.609375 37.203125 76.253906 C 40.113281 66.441406 41.695312 56.261719 42.320312 46.054688 C 42.835938 36.640625 42.839844 27.089844 40.847656 17.828125 C 42.714844 17.828125 44.574219 17.824219 46.4375 17.828125 C 47.421875 23.589844 47.796875 29.433594 47.960938 35.269531 C 48.164062 34.769531 48.390625 34.261719 48.8125 33.90625 C 51.394531 31.542969 53.976562 29.179688 56.558594 26.8125 C 57.605469 25.921875 57.617188 24.25 56.800781 23.207031 C 54.074219 19.519531 51.308594 15.859375 48.574219 12.175781 C 48.046875 11.480469 47.835938 10.480469 48.289062 9.691406 C 48.808594 8.726562 49.980469 8.347656 51.015625 8.359375 C 55.464844 8.523438 59.761719 11.121094 61.917969 15.039062 C 61.976562 14.417969 62.261719 13.722656 62.957031 13.617188 C 63.988281 13.34375 64.882812 14.625 64.289062 15.503906 C 63.886719 16.222656 62.949219 16.210938 62.324219 15.8125 C 62.835938 16.796875 63.191406 17.855469 63.414062 18.9375 C 63.703125 18.371094 64.226562 17.785156 64.9375 17.953125 C 65.941406 18.0625 66.332031 19.484375 65.566406 20.125 C 64.984375 20.683594 64.105469 20.417969 63.605469 19.898438 C 63.773438 21 63.824219 22.117188 63.726562 23.230469 C 64.152344 22.851562 64.691406 22.460938 65.292969 22.691406 C 66.214844 22.953125 66.453125 24.300781 65.683594 24.871094 C 64.988281 25.464844 63.828125 25.035156 63.6875 24.125 C 63.5 25.167969 63.273438 26.207031 62.902344 27.203125 C 63.457031 26.972656 64.167969 26.808594 64.628906 27.3125 C 65.417969 28.003906 64.878906 29.472656 63.824219 29.46875 C 63.03125 29.558594 62.570312 28.824219 62.417969 28.148438 C 61.988281 28.992188 61.324219 29.683594 60.578125 30.25 C 61.152344 30.273438 61.839844 30.359375 62.101562 30.960938 C 62.601562 31.839844 61.714844 33.023438 60.730469 32.761719 C 59.902344 32.636719 59.644531 31.734375 59.757812 31.011719 C 59.015625 31.753906 58.246094 32.472656 57.429688 33.132812 C 58.082031 33.101562 58.875 33.261719 59.085938 33.984375 C 59.46875 34.949219 58.371094 36.015625 57.421875 35.5625 C 56.710938 35.3125 56.59375 34.503906 56.671875 33.847656 C 56.011719 34.675781 54.550781 35.246094 54.835938 36.515625 C 55.261719 37.394531 56.101562 37.988281 56.671875 38.773438 C 56.59375 38.117188 56.726562 37.320312 57.429688 37.070312 C 58.382812 36.632812 59.480469 37.703125 59.082031 38.671875 C 58.824219 39.453125 57.886719 39.652344 57.199219 39.335938 C 57.898438 40.0625 58.566406 40.8125 59.230469 41.570312 C 59.21875 40.890625 59.535156 40.085938 60.304688 40.003906 C 61.296875 39.769531 62.140625 40.988281 61.613281 41.847656 C 61.335938 42.421875 60.664062 42.53125 60.09375 42.492188 C 60.753906 43.136719 61.304688 44 61.179688 44.964844 C 61.128906 46.117188 60.171875 46.882812 59.351562 47.542969 C 59.824219 47.644531 60.40625 47.640625 60.71875 48.082031 C 61.21875 48.679688 60.992188 49.707031 60.269531 50.007812 C 59.648438 50.324219 58.824219 49.996094 58.578125 49.347656 C 58.394531 48.976562 58.617188 48.59375 58.660156 48.21875 C 58.003906 48.808594 57.371094 49.417969 56.691406 49.976562 C 57.285156 50.015625 58.027344 50.09375 58.265625 50.746094 C 58.769531 51.726562 57.632812 52.898438 56.640625 52.425781 C 55.929688 52.171875 55.800781 51.355469 55.933594 50.699219 C 55.277344 51.484375 54.007812 51.984375 54.007812 53.144531 C 54.28125 54.167969 55.238281 54.820312 55.75 55.726562 C 55.542969 54.972656 55.921875 54.035156 56.769531 53.953125 C 57.816406 53.746094 58.617188 55.089844 57.96875 55.925781 C 57.601562 56.507812 56.875 56.472656 56.289062 56.363281 C 56.933594 57.132812 57.558594 57.917969 58.164062 58.71875 C 58.070312 57.941406 58.539062 57.046875 59.410156 57.070312 C 60.390625 57.003906 61.042969 58.253906 60.46875 59.035156 C 60.113281 59.617188 59.371094 59.636719 58.78125 59.476562 C 59.472656 60.191406 59.871094 61.238281 59.566406 62.222656 C 59.242188 63.460938 57.988281 64.03125 57.03125 64.710938 C 57.742188 64.652344 58.546875 65 58.636719 65.792969 C 58.851562 66.851562 57.480469 67.664062 56.648438 66.988281 C 56.070312 66.613281 56.132812 65.871094 56.238281 65.277344 C 55.5625 65.808594 54.863281 66.3125 54.136719 66.773438 C 54.714844 66.8125 55.410156 66.941406 55.632812 67.566406 C 56.097656 68.488281 55.089844 69.621094 54.125 69.269531 C 53.285156 69.050781 53.074219 68.050781 53.363281 67.324219 C 52.613281 68.117188 51.101562 68.464844 51.113281 69.753906 C 51.472656 70.839844 52.324219 71.671875 52.867188 72.664062 C 52.875 71.941406 53.296875 71.121094 54.113281 71.136719 C 55.234375 71.015625 55.882812 72.601562 55.015625 73.3125 C 54.535156 73.859375 53.871094 73.515625 53.308594 73.359375 C 53.898438 74.261719 54.738281 75.089844 54.90625 76.199219 C 55.089844 77.457031 54.238281 78.753906 53.011719 79.070312 C 51.9375 79.398438 50.714844 78.929688 50.097656 78 C 48.652344 75.976562 47.222656 73.945312 45.773438 71.921875 C 45.125 70.984375 44.253906 70.09375 44.230469 68.875 C 43.128906 73.144531 41.722656 77.332031 40.058594 81.410156 C 38.148438 81.414062 36.242188 81.410156 34.335938 81.410156 C 32.695312 77.386719 31.285156 73.261719 30.222656 69.042969 C 30.085938 69.609375 29.9375 70.183594 29.570312 70.652344 C 27.78125 73.136719 26.023438 75.648438 24.230469 78.132812 C 23.441406 79.238281 21.761719 79.5 20.660156 78.71875 C 19.554688 78.003906 19.167969 76.394531 19.835938 75.257812 C 20.21875 74.609375 20.648438 73.996094 21.097656 73.398438 C 20.5625 73.644531 19.878906 73.789062 19.417969 73.3125 C 18.644531 72.671875 19.066406 71.234375 20.078125 71.148438 C 20.976562 70.972656 21.59375 71.84375 21.566406 72.664062 C 22.042969 71.863281 22.605469 71.117188 23.097656 70.324219 C 23.449219 69.84375 23.375 69.109375 22.914062 68.722656 C 22.332031 68.21875 21.65625 67.828125 21.074219 67.324219 C 21.351562 68.042969 21.15625 69.035156 20.324219 69.261719 C 19.347656 69.640625 18.324219 68.480469 18.804688 67.554688 C 19.035156 66.9375 19.71875 66.8125 20.296875 66.773438 C 19.566406 66.316406 18.863281 65.808594 18.1875 65.273438 C 18.34375 65.914062 18.320312 66.75 17.640625 67.078125 C 16.785156 67.601562 15.589844 66.769531 15.800781 65.777344 C 15.882812 64.996094 16.695312 64.660156 17.390625 64.707031 C 16.476562 64.042969 15.292969 63.515625 14.910156 62.363281 C 14.535156 61.351562 14.917969 60.226562 15.648438 59.480469 C 15.015625 59.664062 14.210938 59.585938 13.898438 58.917969 C 13.378906 58.046875 14.253906 56.839844 15.246094 57.09375 C 16.019531 57.203125 16.316406 58.019531 16.273438 58.710938 C 16.878906 57.914062 17.496094 57.128906 18.140625 56.363281 C 17.597656 56.445312 16.945312 56.535156 16.554688 56.039062 C 15.828125 55.308594 16.429688 53.894531 17.464844 53.945312 C 18.34375 53.878906 18.847656 54.792969 18.761719 55.574219 C 19.292969 54.753906 20.167969 54.113281 20.425781 53.144531 C 20.417969 51.988281 19.160156 51.480469 18.5 50.699219 C 18.667969 51.402344 18.449219 52.285156 17.65625 52.472656 C 16.675781 52.8125 15.703125 51.671875 16.164062 50.75 C 16.398438 50.09375 17.140625 50.015625 17.738281 49.976562 C 17.121094 49.460938 16.523438 48.921875 15.957031 48.347656 C 15.96875 48.972656 15.890625 49.75 15.214844 50.007812 C 14.296875 50.507812 13.132812 49.484375 13.5 48.5 C 13.683594 47.757812 14.496094 47.539062 15.167969 47.640625 C 14.339844 46.929688 13.308594 46.171875 13.253906 44.972656 C 13.121094 44 13.675781 43.132812 14.339844 42.488281 C 13.597656 42.625 12.734375 42.203125 12.675781 41.386719 C 12.511719 40.414062 13.683594 39.625 14.523438 40.132812 C 15.082031 40.394531 15.171875 41.039062 15.183594 41.589844 C 15.851562 40.828125 16.523438 40.074219 17.226562 39.347656 C 16.527344 39.648438 15.597656 39.453125 15.347656 38.65625 C 14.964844 37.6875 16.0625 36.632812 17.007812 37.078125 C 17.714844 37.324219 17.84375 38.128906 17.753906 38.785156 C 18.324219 37.988281 19.183594 37.394531 19.605469 36.496094 C 19.867188 35.234375 18.414062 34.671875 17.757812 33.84375 C 17.84375 34.503906 17.714844 35.316406 17.003906 35.566406 C 16.050781 36.011719 14.960938 34.945312 15.351562 33.976562 C 15.566406 33.261719 16.351562 33.101562 17 33.132812 C 16.1875 32.46875 15.417969 31.753906 14.675781 31.011719 C 14.757812 31.667969 14.605469 32.484375 13.890625 32.710938 C 12.925781 33.125 11.859375 32.042969 12.273438 31.085938 C 12.484375 30.414062 13.230469 30.261719 13.847656 30.246094 C 13.105469 29.675781 12.445312 28.992188 12.015625 28.152344 C 11.84375 28.660156 11.640625 29.277344 11.050781 29.417969 C 10.066406 29.785156 9.039062 28.617188 9.539062 27.683594 C 9.871094 26.886719 10.855469 26.847656 11.535156 27.195312 C 11.160156 26.226562 10.945312 25.207031 10.777344 24.183594 C 10.550781 24.792969 9.957031 25.289062 9.277344 25.117188 C 8.289062 24.960938 7.925781 23.523438 8.730469 22.925781 C 9.367188 22.355469 10.332031 22.683594 10.734375 23.371094 C 10.59375 22.226562 10.660156 21.066406 10.832031 19.925781 C 10.328125 20.351562 9.582031 20.671875 8.988281 20.222656 C 8.15625 19.691406 8.351562 18.253906 9.316406 17.996094 C 10.050781 17.710938 10.703125 18.285156 11.011719 18.902344 C 11.246094 17.839844 11.601562 16.804688 12.09375 15.835938 C 11.554688 16.113281 10.828125 16.253906 10.359375 15.765625 C 9.589844 15.109375 10.023438 13.679688 11.050781 13.601562 C 11.90625 13.457031 12.507812 14.257812 12.515625 15.042969 M 19.511719 11.609375 C 18.785156 11.941406 18.789062 13.101562 19.507812 13.441406 C 20.195312 13.867188 21.148438 13.195312 21.035156 12.414062 C 20.96875 11.714844 20.125 11.238281 19.511719 11.609375 M 53.957031 11.605469 C 53.296875 11.921875 53.203125 12.933594 53.8125 13.355469 C 54.414062 13.871094 55.421875 13.390625 55.472656 12.617188 C 55.570312 11.839844 54.636719 11.195312 53.957031 11.605469 M 47.253906 51.832031 C 47.503906 51.417969 47.761719 51 48.132812 50.679688 C 49.945312 49.03125 51.75 47.375 53.570312 45.730469 C 53.917969 45.40625 54.324219 45.042969 54.316406 44.515625 C 54.347656 44.042969 54.023438 43.664062 53.726562 43.335938 C 52.035156 41.488281 50.351562 39.632812 48.664062 37.785156 C 48.320312 37.429688 48.140625 36.96875 47.964844 36.519531 C 47.929688 41.628906 47.765625 46.746094 47.253906 51.832031 M 25.660156 37.898438 C 23.9375 39.796875 22.199219 41.679688 20.488281 43.585938 C 19.992188 44.070312 20 44.953125 20.53125 45.40625 C 22.441406 47.183594 24.386719 48.925781 26.3125 50.6875 C 26.660156 51 26.917969 51.394531 27.15625 51.796875 C 26.636719 46.796875 26.417969 41.761719 26.476562 36.734375 C 26.230469 37.140625 25.980469 37.546875 25.660156 37.898438 M 47.097656 53.117188 C 46.5625 58.039062 45.746094 62.945312 44.492188 67.738281 C 44.773438 67.398438 45.046875 67.046875 45.40625 66.785156 C 47.683594 65.160156 49.988281 63.570312 52.257812 61.933594 C 52.867188 61.542969 53 60.625 52.511719 60.085938 C 51.347656 58.675781 50.140625 57.304688 48.960938 55.90625 C 48.25 55.039062 47.355469 54.253906 47.097656 53.117188 M 26.5 54.707031 C 25.039062 56.410156 23.589844 58.117188 22.128906 59.820312 C 21.816406 60.175781 21.507812 60.625 21.640625 61.128906 C 21.714844 61.628906 22.160156 61.929688 22.535156 62.203125 C 24.617188 63.664062 26.6875 65.136719 28.765625 66.597656 C 29.164062 66.871094 29.511719 67.214844 29.84375 67.566406 C 28.667969 62.875 27.8125 58.097656 27.335938 53.285156 C 27.113281 53.789062 26.867188 54.289062 26.5 54.707031 Z M 26.5 54.707031 "/>
<path style=" stroke:none;fill-rule:nonzero;fill:rgb(25.490196%,28.235294%,15.294118%);fill-opacity:1;" d="M 75.109375 18.011719 C 75.601562 18.019531 76.09375 18.019531 76.585938 18.023438 C 76.589844 21.609375 76.585938 25.199219 76.589844 28.785156 C 76.59375 30.179688 76.945312 31.609375 77.796875 32.734375 C 79.953125 35.695312 85.046875 35.660156 87.167969 32.679688 C 88.019531 31.496094 88.320312 30.003906 88.320312 28.566406 C 88.332031 25.050781 88.308594 21.535156 88.332031 18.019531 C 88.835938 18.019531 89.339844 18.019531 89.839844 18.023438 C 89.84375 21.386719 89.835938 24.757812 89.847656 28.125 C 89.894531 29.75 89.65625 31.421875 88.878906 32.867188 C 87.996094 34.570312 86.34375 35.839844 84.46875 36.238281 C 82.054688 36.757812 79.273438 36.402344 77.417969 34.644531 C 75.796875 33.179688 75.128906 30.933594 75.113281 28.796875 C 75.082031 25.203125 75.097656 21.609375 75.109375 18.011719 Z M 75.109375 18.011719 "/>
<path style=" stroke:none;fill-rule:nonzero;fill:rgb(25.490196%,28.235294%,15.294118%);fill-opacity:1;" d="M 95.503906 18.902344 C 95.949219 18.90625 96.402344 18.910156 96.855469 18.917969 C 100.652344 23.5 104.433594 28.101562 108.265625 32.65625 C 108.308594 28.074219 108.273438 23.492188 108.285156 18.910156 C 108.703125 18.90625 109.125 18.902344 109.546875 18.898438 C 109.5625 24.207031 109.550781 29.511719 109.554688 34.816406 C 109.054688 34.753906 108.402344 34.960938 108.078125 34.457031 C 104.316406 29.910156 100.5625 25.359375 96.800781 20.8125 C 96.800781 25.476562 96.800781 30.136719 96.800781 34.800781 C 96.363281 34.796875 95.929688 34.792969 95.5 34.785156 C 95.503906 29.488281 95.5 24.195312 95.503906 18.902344 Z M 95.503906 18.902344 "/>
<path style=" stroke:none;fill-rule:nonzero;fill:rgb(25.490196%,28.235294%,15.294118%);fill-opacity:1;" d="M 115.285156 19.125 C 115.738281 19.128906 116.1875 19.128906 116.640625 19.128906 C 116.664062 24.433594 116.644531 29.738281 116.648438 35.046875 C 116.191406 35.046875 115.726562 35.046875 115.269531 35.046875 C 115.28125 29.738281 115.246094 24.429688 115.285156 19.125 Z M 115.285156 19.125 "/>
<path style=" stroke:none;fill-rule:nonzero;fill:rgb(25.490196%,28.235294%,15.294118%);fill-opacity:1;" d="M 121.15625 19.152344 C 121.628906 19.136719 122.097656 19.125 122.574219 19.109375 C 124.398438 23.519531 126.082031 27.984375 127.949219 32.378906 C 129.734375 27.960938 131.535156 23.550781 133.320312 19.132812 C 133.78125 19.128906 134.246094 19.128906 134.707031 19.128906 C 132.457031 24.554688 130.269531 30.011719 127.972656 35.417969 C 127.425781 34.488281 127.085938 33.464844 126.664062 32.476562 C 124.828125 28.035156 123 23.589844 121.15625 19.152344 Z M 121.15625 19.152344 "/>
<path style=" stroke:none;fill-rule:nonzero;fill:rgb(25.490196%,28.235294%,15.294118%);fill-opacity:1;" d="M 138.429688 19.136719 C 141.28125 19.121094 144.125 19.121094 146.976562 19.136719 C 146.96875 19.484375 146.960938 19.832031 146.957031 20.179688 C 144.550781 20.179688 142.144531 20.183594 139.734375 20.175781 C 139.730469 22.273438 139.734375 24.367188 139.730469 26.460938 C 142.050781 26.464844 144.371094 26.46875 146.691406 26.460938 C 146.703125 26.800781 146.71875 27.144531 146.730469 27.488281 C 144.398438 27.488281 142.066406 27.488281 139.734375 27.488281 C 139.730469 29.636719 139.730469 31.789062 139.734375 33.9375 C 142.195312 33.9375 144.660156 33.941406 147.121094 33.9375 C 147.125 34.304688 147.128906 34.675781 147.136719 35.046875 C 144.238281 35.046875 141.335938 35.046875 138.433594 35.046875 C 138.429688 29.742188 138.441406 24.441406 138.429688 19.136719 Z M 138.429688 19.136719 "/>
<path style=" stroke:none;fill-rule:nonzero;fill:rgb(25.490196%,28.235294%,15.294118%);fill-opacity:1;" d="M 152.710938 19.128906 C 155.074219 19.265625 157.617188 18.707031 159.820312 19.8125 C 161.757812 20.742188 162.160156 23.414062 161.183594 25.179688 C 160.6875 26.101562 159.734375 26.625 158.800781 27.007812 C 159.878906 27.742188 160.457031 28.933594 161.164062 29.992188 C 162.246094 31.675781 163.347656 33.347656 164.417969 35.039062 C 163.933594 35.042969 163.449219 35.046875 162.972656 35.050781 C 161.738281 33.179688 160.585938 31.253906 159.308594 29.414062 C 158.789062 28.710938 158.277344 27.863281 157.378906 27.625 C 156.269531 27.339844 155.109375 27.410156 153.976562 27.40625 C 153.980469 29.949219 153.976562 32.496094 153.976562 35.039062 C 153.558594 35.042969 153.136719 35.046875 152.722656 35.054688 C 152.691406 29.746094 152.714844 24.4375 152.710938 19.128906 M 153.980469 20.234375 C 153.976562 22.257812 153.976562 24.277344 153.980469 26.300781 C 155.601562 26.21875 157.355469 26.523438 158.859375 25.746094 C 160.714844 24.8125 160.792969 21.671875 158.910156 20.726562 C 157.382812 19.957031 155.617188 20.320312 153.980469 20.234375 Z M 153.980469 20.234375 "/>
<path style=" stroke:none;fill-rule:nonzero;fill:rgb(25.490196%,28.235294%,15.294118%);fill-opacity:1;" d="M 167.945312 21.929688 C 168.359375 20.351562 169.832031 19.183594 171.425781 18.976562 C 172.988281 18.710938 174.558594 19.203125 175.921875 19.949219 C 175.925781 20.441406 175.929688 20.933594 175.933594 21.421875 C 174.457031 20.429688 172.523438 19.632812 170.78125 20.421875 C 169.097656 21.085938 168.46875 23.578125 169.78125 24.875 C 171.402344 26.273438 173.707031 26.527344 175.289062 27.988281 C 177.089844 29.742188 176.738281 33.117188 174.613281 34.46875 C 172.515625 35.859375 169.710938 35.269531 167.757812 33.894531 C 167.757812 33.367188 167.75 32.84375 167.75 32.316406 C 169.0625 33.265625 170.589844 34.1875 172.273438 33.992188 C 173.410156 33.90625 174.519531 33.183594 174.882812 32.070312 C 175.234375 30.996094 175.164062 29.582031 174.195312 28.84375 C 172.554688 27.582031 170.359375 27.269531 168.832031 25.832031 C 167.78125 24.859375 167.601562 23.257812 167.945312 21.929688 Z M 167.945312 21.929688 "/>
<path style=" stroke:none;fill-rule:nonzero;fill:rgb(25.490196%,28.235294%,15.294118%);fill-opacity:1;" d="M 181.449219 19.132812 C 181.90625 19.128906 182.367188 19.128906 182.828125 19.125 C 182.835938 24.425781 182.824219 29.726562 182.835938 35.027344 C 182.375 35.042969 181.917969 35.050781 181.460938 35.058594 C 181.433594 29.75 181.460938 24.441406 181.449219 19.132812 Z M 181.449219 19.132812 "/>
<path style=" stroke:none;fill-rule:nonzero;fill:rgb(25.490196%,28.235294%,15.294118%);fill-opacity:1;" d="M 188.667969 19.121094 C 190.785156 19.152344 192.902344 19.089844 195.019531 19.152344 C 196.796875 19.21875 198.609375 19.75 199.9375 20.980469 C 202.945312 23.617188 203.398438 28.542969 201.144531 31.796875 C 200.300781 33.035156 199.078125 34.023438 197.660156 34.515625 C 196.464844 34.9375 195.1875 35.050781 193.933594 35.046875 C 192.175781 35.042969 190.414062 35.046875 188.65625 35.042969 C 188.664062 29.738281 188.644531 24.429688 188.667969 19.121094 M 190.03125 33.875 C 191.625 33.871094 193.222656 33.917969 194.816406 33.855469 C 196.273438 33.796875 197.789062 33.421875 198.898438 32.414062 C 202.179688 29.578125 201.894531 23.523438 198.132812 21.222656 C 195.667969 19.851562 192.738281 20.417969 190.050781 20.285156 C 190.019531 24.8125 190.050781 29.34375 190.03125 33.875 Z M 190.03125 33.875 "/>
<path style=" stroke:none;fill-rule:nonzero;fill:rgb(25.490196%,28.235294%,15.294118%);fill-opacity:1;" d="M 223.023438 19.144531 C 224.964844 19.117188 226.90625 19.125 228.851562 19.132812 C 230.660156 19.164062 232.570312 19.53125 233.992188 20.738281 C 237.171875 23.25 237.8125 28.234375 235.617188 31.589844 C 234.457031 33.480469 232.390625 34.722656 230.195312 34.9375 C 227.8125 35.164062 225.414062 34.996094 223.03125 35.046875 C 223.027344 29.742188 223.039062 24.441406 223.023438 19.144531 M 224.355469 20.292969 C 224.355469 24.820312 224.355469 29.351562 224.355469 33.882812 C 226.074219 33.855469 227.796875 33.941406 229.515625 33.828125 C 230.980469 33.738281 232.46875 33.242188 233.507812 32.167969 C 236.511719 29.222656 236.121094 23.425781 232.441406 21.203125 C 229.96875 19.859375 227.046875 20.410156 224.355469 20.292969 Z M 224.355469 20.292969 "/>
<path style=" stroke:none;fill-rule:nonzero;fill:rgb(25.490196%,28.235294%,15.294118%);fill-opacity:1;" d="M 211.414062 19.734375 C 211.554688 19.738281 211.832031 19.746094 211.972656 19.75 C 214.125 24.855469 216.316406 29.945312 218.476562 35.046875 C 218.039062 35.046875 217.601562 35.042969 217.167969 35.042969 C 216.445312 33.277344 215.679688 31.535156 214.96875 29.773438 C 212.785156 29.742188 210.597656 29.761719 208.414062 29.761719 C 207.667969 31.53125 206.949219 33.3125 206.171875 35.066406 C 205.746094 35.050781 205.324219 35.042969 204.902344 35.03125 C 207.066406 29.929688 209.253906 24.835938 211.414062 19.734375 M 208.867188 28.707031 C 210.75 28.707031 212.632812 28.707031 214.515625 28.707031 C 213.605469 26.425781 212.632812 24.171875 211.714844 21.898438 C 210.746094 24.160156 209.777344 26.417969 208.867188 28.707031 Z M 208.867188 28.707031 "/>
<path style=" stroke:none;fill-rule:nonzero;fill:rgb(25.490196%,28.235294%,15.294118%);fill-opacity:1;" d="M 75.203125 42.515625 C 81.003906 42.457031 86.800781 42.507812 92.601562 42.492188 C 92.601562 44.035156 92.609375 45.574219 92.597656 47.121094 C 88.496094 47.109375 84.394531 47.117188 80.289062 47.113281 C 80.285156 49.324219 80.300781 51.535156 80.28125 53.746094 C 84.265625 53.773438 88.246094 53.757812 92.230469 53.753906 C 92.257812 55.320312 92.234375 56.890625 92.25 58.457031 C 88.261719 58.472656 84.277344 58.460938 80.289062 58.464844 C 80.289062 60.753906 80.289062 63.042969 80.289062 65.328125 C 84.523438 65.328125 88.757812 65.328125 92.988281 65.328125 C 92.988281 66.890625 92.988281 68.449219 92.988281 70.007812 C 87.0625 69.988281 81.128906 70.046875 75.203125 69.976562 C 75.214844 60.824219 75.210938 51.671875 75.203125 42.515625 Z M 75.203125 42.515625 "/>
<path style=" stroke:none;fill-rule:nonzero;fill:rgb(25.490196%,28.235294%,15.294118%);fill-opacity:1;" d="M 122.441406 69.984375 C 122.464844 60.808594 122.433594 51.636719 122.457031 42.460938 C 125.371094 42.472656 128.28125 42.457031 131.195312 42.464844 C 133.339844 42.496094 135.601562 42.964844 137.289062 44.375 C 138.601562 45.433594 139.398438 47.046875 139.59375 48.710938 C 139.804688 50.367188 139.640625 52.167969 138.683594 53.582031 C 138.238281 54.273438 137.585938 54.789062 136.925781 55.265625 C 138.453125 55.945312 139.90625 56.933594 140.777344 58.398438 C 141.824219 60.117188 142.023438 62.269531 141.566406 64.207031 C 141.097656 66.171875 139.671875 67.808594 137.910156 68.746094 C 136.136719 69.714844 134.085938 70.027344 132.085938 70.011719 C 128.871094 69.988281 125.65625 70.042969 122.441406 69.984375 M 127.476562 47.144531 C 127.476562 49.339844 127.464844 51.539062 127.480469 53.738281 C 129.332031 53.691406 131.328125 53.910156 133.011719 52.984375 C 134.464844 52.179688 134.65625 50.222656 134.191406 48.785156 C 133.886719 47.886719 132.964844 47.410156 132.085938 47.273438 C 130.558594 47.03125 129.011719 47.179688 127.476562 47.144531 M 127.472656 58.4375 C 127.476562 60.714844 127.46875 62.996094 127.480469 65.277344 C 129.335938 65.242188 131.199219 65.332031 133.058594 65.230469 C 134.320312 65.132812 135.855469 64.691406 136.285156 63.339844 C 136.636719 62.089844 136.617188 60.519531 135.625 59.558594 C 134.734375 58.738281 133.464844 58.554688 132.304688 58.460938 C 130.691406 58.398438 129.082031 58.453125 127.472656 58.4375 Z M 127.472656 58.4375 "/>
<path style=" stroke:none;fill-rule:nonzero;fill:rgb(25.490196%,28.235294%,15.294118%);fill-opacity:1;" d="M 95.695312 44.375 C 97.398438 44.378906 99.105469 44.359375 100.808594 44.390625 C 100.789062 51.457031 100.816406 58.523438 100.796875 65.59375 C 105.058594 65.621094 109.320312 65.601562 113.582031 65.605469 C 113.589844 67.074219 113.585938 68.539062 113.585938 70.007812 C 107.621094 70.003906 101.65625 70.011719 95.691406 70.003906 C 95.695312 61.460938 95.691406 52.917969 95.695312 44.375 Z M 95.695312 44.375 "/>
<path style=" stroke:none;fill-rule:nonzero;fill:rgb(25.490196%,28.235294%,15.294118%);fill-opacity:1;" d="M 154.28125 44.441406 C 157.019531 43.941406 159.902344 44.226562 162.480469 45.277344 C 165.679688 46.609375 168.390625 49.183594 169.75 52.390625 C 170.789062 54.929688 170.96875 57.8125 170.3125 60.472656 C 169.511719 63.632812 167.378906 66.371094 164.644531 68.101562 C 161.136719 70.371094 156.613281 70.863281 152.644531 69.65625 C 149.667969 68.777344 147.035156 66.816406 145.289062 64.25 C 143.367188 61.425781 142.714844 57.792969 143.464844 54.464844 C 144.59375 49.320312 149.160156 45.3125 154.28125 44.441406 M 155.390625 48.875 C 152.609375 49.375 150.054688 51.257812 148.902344 53.871094 C 147.964844 55.988281 147.957031 58.507812 148.910156 60.621094 C 149.785156 62.640625 151.503906 64.246094 153.527344 65.078125 C 155.945312 66.046875 158.773438 65.921875 161.09375 64.730469 C 162.726562 63.867188 164.085938 62.464844 164.863281 60.777344 C 165.917969 58.589844 165.917969 55.921875 164.875 53.730469 C 164.253906 52.433594 163.28125 51.328125 162.148438 50.453125 C 160.25 49.007812 157.734375 48.46875 155.390625 48.875 Z M 155.390625 48.875 "/>
<path style=" stroke:none;fill-rule:nonzero;fill:rgb(25.490196%,28.235294%,15.294118%);fill-opacity:1;" d="M 196.664062 45.703125 C 199.773438 44.175781 203.449219 43.910156 206.765625 44.863281 C 209.953125 45.742188 212.722656 47.902344 214.507812 50.671875 C 216.292969 53.433594 216.828125 56.898438 216.292969 60.113281 C 215.785156 63.144531 214.011719 65.890625 211.601562 67.757812 C 210.398438 68.707031 209.019531 69.390625 207.609375 69.96875 C 210.128906 71.078125 212.992188 71.464844 215.675781 70.75 C 215.84375 71.179688 216.011719 71.613281 216.183594 72.042969 C 215.035156 73.070312 213.878906 74.09375 212.722656 75.113281 C 212.183594 75.632812 211.367188 75.433594 210.699219 75.441406 C 206.648438 75.140625 202.996094 73.0625 199.707031 70.816406 C 199.132812 70.417969 198.429688 70.285156 197.785156 70.050781 C 193.871094 68.6875 190.730469 65.320312 189.609375 61.324219 C 188.851562 58.589844 188.90625 55.601562 189.964844 52.957031 C 191.167969 49.796875 193.628906 47.164062 196.664062 45.703125 M 200.679688 48.664062 C 198.242188 49.308594 196.0625 51.011719 194.984375 53.3125 C 193.917969 55.527344 193.824219 58.199219 194.78125 60.472656 C 195.730469 62.824219 197.769531 64.699219 200.175781 65.484375 C 202.164062 66.140625 204.394531 66.007812 206.304688 65.148438 C 208.246094 64.238281 209.867188 62.628906 210.734375 60.65625 C 211.488281 59.015625 211.640625 57.128906 211.300781 55.363281 C 210.6875 52.5 208.582031 49.980469 205.832031 48.957031 C 204.199219 48.328125 202.371094 48.25 200.679688 48.664062 Z M 200.679688 48.664062 "/>
<path style=" stroke:none;fill-rule:nonzero;fill:rgb(25.490196%,28.235294%,15.294118%);fill-opacity:1;" d="M 173.890625 47.03125 C 175.421875 45.304688 177.757812 44.480469 180.027344 44.433594 C 182.398438 44.34375 184.707031 45.125 186.75 46.28125 C 186.75 48.128906 186.753906 49.976562 186.75 51.824219 C 185.101562 50.597656 183.417969 49.210938 181.324219 48.886719 C 180.070312 48.695312 178.621094 48.757812 177.632812 49.652344 C 177.109375 50.089844 176.855469 50.917969 177.257812 51.515625 C 177.917969 52.601562 179.023438 53.300781 180.046875 54.003906 C 182.160156 55.308594 184.46875 56.414062 186.175781 58.273438 C 187.675781 59.90625 188.128906 62.285156 187.78125 64.429688 C 187.460938 66.34375 186.132812 67.972656 184.46875 68.910156 C 182.34375 70.121094 179.773438 70.238281 177.410156 69.835938 C 175.542969 69.519531 173.828125 68.632812 172.339844 67.480469 C 172.335938 65.351562 172.339844 63.21875 172.335938 61.085938 C 173.988281 62.851562 175.722656 64.847656 178.199219 65.371094 C 179.554688 65.601562 181.144531 65.628906 182.261719 64.699219 C 183.175781 63.949219 183.152344 62.472656 182.40625 61.613281 C 181.800781 60.9375 181.015625 60.460938 180.265625 59.964844 C 178.15625 58.65625 175.972656 57.414062 174.125 55.738281 C 171.714844 53.542969 171.734375 49.398438 173.890625 47.03125 Z M 173.890625 47.03125 "/>
<path style=" stroke:none;fill-rule:nonzero;fill:rgb(25.490196%,28.235294%,15.294118%);fill-opacity:1;" d="M 218.558594 44.402344 C 220.132812 44.402344 221.707031 44.398438 223.28125 44.402344 C 223.28125 49.238281 223.269531 54.070312 223.285156 58.902344 C 223.34375 60.363281 223.265625 62.035156 224.304688 63.207031 C 225.761719 64.949219 228.152344 65.601562 230.351562 65.417969 C 232.125 65.3125 233.941406 64.59375 235.054688 63.152344 C 235.804688 62.210938 236.019531 60.972656 236.007812 59.796875 C 236.003906 54.664062 236.007812 49.535156 236.007812 44.402344 C 237.582031 44.402344 239.15625 44.398438 240.730469 44.402344 C 240.726562 49.09375 240.730469 53.777344 240.730469 58.464844 C 240.742188 60.210938 240.808594 62.015625 240.167969 63.675781 C 239.039062 66.820312 236.035156 68.996094 232.84375 69.675781 C 229.363281 70.410156 225.476562 70.011719 222.523438 67.902344 C 220.964844 66.757812 219.582031 65.226562 219.023438 63.335938 C 218.632812 62.046875 218.574219 60.679688 218.554688 59.34375 C 218.558594 54.363281 218.554688 49.382812 218.558594 44.402344 Z M 218.558594 44.402344 "/>
<path style=" stroke:none;fill-rule:nonzero;fill:rgb(25.490196%,28.235294%,15.294118%);fill-opacity:1;" d="M 243.703125 44.523438 C 249.542969 44.507812 255.382812 44.503906 261.222656 44.523438 C 261.207031 45.984375 261.210938 47.445312 261.21875 48.910156 C 257.085938 48.917969 252.953125 48.910156 248.820312 48.914062 C 248.816406 50.917969 248.816406 52.917969 248.820312 54.921875 C 252.832031 54.921875 256.84375 54.921875 260.855469 54.921875 C 260.851562 56.390625 260.855469 57.859375 260.851562 59.324219 C 256.84375 59.320312 252.832031 59.324219 248.820312 59.320312 C 248.816406 61.40625 248.816406 63.492188 248.820312 65.578125 C 253.085938 65.578125 257.355469 65.582031 261.625 65.574219 C 261.628906 67.039062 261.632812 68.496094 261.621094 69.957031 C 255.648438 69.941406 249.679688 69.960938 243.707031 69.945312 C 243.710938 61.472656 243.71875 52.996094 243.703125 44.523438 Z M 243.703125 44.523438 "/>
</g>
</svg>
